<svg width="27.424805" height="27.424805" viewBox="0 0 27.4248 27.4248" fill="none" xmlns="http://www.w3.org/2000/svg" xmlns:xlink="http://www.w3.org/1999/xlink">
	<desc>
			Created with Pixso.
	</desc>
	<defs/>
	<rect id="Logomark" rx="0.000000" width="27.155788" height="27.155788" transform="translate(0.134435 0.134435)" fill="#FFFFFF" fill-opacity="0"/>
	<g opacity="0.700000">
		<path id="Isometric square" d="M8.27 12.66C8.78 10.75 10.75 8.78 12.66 8.27L24.58 5.07C26.5 4.56 27.63 5.7 27.12 7.61L23.92 19.53C23.41 21.44 21.45 23.41 19.53 23.92L7.61 27.12C5.7 27.63 4.56 26.49 5.08 24.58L8.27 12.66Z" fill="#FFFFFF" fill-opacity="1.000000" fill-rule="nonzero"/>
	</g>
	<path id="Isometric square" d="M3.49 7.88C4 5.97 5.97 4 7.88 3.49L19.8 0.29C21.72 -0.22 22.85 0.91 22.34 2.83L19.14 14.75C18.63 16.66 16.67 18.63 14.75 19.14L2.83 22.34C0.92 22.85 -0.22 21.71 0.3 19.8L3.49 7.88Z" fill="#FFFFFF" fill-opacity="1.000000" fill-rule="nonzero"/>
</svg>
